<svg width="318" height="319" viewBox="0 0 318 319" fill="none" xmlns="http://www.w3.org/2000/svg">
<g clip-path="url(#clip0_210_53)">
<g filter="url(#filter0_d_210_53)">
<circle cx="159.599" cy="163.599" r="155" transform="rotate(-90 159.599 163.599)" fill="#0F2A58" fill-opacity="0.8"/>
<path d="M69.5989 163.599L133.823 152.922L95.9593 99.9596L148.922 137.823L159.599 73.5992L170.276 137.823L223.238 99.9596L185.375 152.922L249.599 163.599L185.375 174.276L223.238 227.239L170.276 189.375L159.599 253.599L148.922 189.375L95.9593 227.239L133.823 174.276L69.5989 163.599Z" fill="#8EB1ED"/>
<circle cx="159.599" cy="163.599" r="4" transform="rotate(-89.8893 159.599 163.599)" fill="#0F2A58"/>
<path d="M26.656 170.632L4.19197 170.632L4.19197 165.688L26.656 165.688L26.656 170.632Z" fill="white"/>
<path d="M314.656 170.632L292.192 170.632L292.192 165.688L314.656 165.688L314.656 170.632Z" fill="white"/>
<path d="M156.368 318.656L156.368 296.192L161.312 296.192L161.312 318.656L156.368 318.656Z" fill="white"/>
</g>
<g filter="url(#filter1_d_210_53)">
<path d="M150.026 136.284L158.93 53.1736C159.058 51.9823 160.791 51.9823 160.919 53.1736L169.824 136.284C169.89 136.904 169.811 137.531 169.592 138.115L160.861 161.396C160.537 162.262 159.313 162.262 158.988 161.396L150.258 138.115C150.039 137.531 149.959 136.904 150.026 136.284Z" fill="white"/>
</g>
<g filter="url(#filter2_d_210_53)">
<path d="M147.018 36.6762L157.984 40.6513C158.901 40.9837 159.892 40.9837 160.808 40.6513L171.775 36.6762C172.071 36.5687 172.329 36.3626 172.512 36.0869C172.695 35.8113 172.793 35.4802 172.793 35.1404V32.6612L160.466 36.6833C159.766 36.9109 159.027 36.9109 158.327 36.6833L146 32.6612V35.1404C146 35.837 146.41 36.4557 147.018 36.6762ZM160.038 35.1323L172.793 30.9706V19.4176C172.793 18.6588 172.308 18.0022 171.627 17.8373L160.365 15.1157C159.727 14.9614 159.066 14.9614 158.428 15.1157L147.166 17.8373C146.485 18.0017 146 18.6588 146 19.4176V30.9711L158.754 35.1323C159.175 35.2699 159.619 35.2699 160.038 35.1323V35.1323ZM166.839 29.2602C166.839 29.0776 166.951 28.9178 167.113 28.8697L170.834 27.7659C171.071 27.6961 171.304 27.8898 171.304 28.1564V28.9952C171.304 29.1778 171.192 29.3376 171.03 29.3857L167.309 30.4895C167.073 30.5598 166.839 30.366 166.839 30.099V29.2602ZM160.141 31.2473C160.141 31.0646 160.253 30.9048 160.415 30.8567L164.88 29.5324C165.117 29.4621 165.351 29.6558 165.351 29.9229V30.7616C165.351 30.9443 165.238 31.1041 165.077 31.1522L160.611 32.4765C160.374 32.5468 160.141 32.3531 160.141 32.086V31.2473V31.2473ZM151.954 30.099C151.954 30.366 151.721 30.5598 151.484 30.4895L147.763 29.3857C147.601 29.3376 147.489 29.1778 147.489 28.9952V28.1564C147.489 27.8893 147.722 27.6956 147.959 27.7659L151.68 28.8697C151.759 28.8931 151.829 28.944 151.878 29.0146C151.928 29.0851 151.954 29.1715 151.954 29.2602V30.099V30.099ZM158.652 32.0855C158.652 32.3526 158.419 32.5463 158.182 32.476L153.717 31.1517C153.555 31.1036 153.443 30.9437 153.443 30.7611V29.9224C153.443 29.6553 153.676 29.4616 153.913 29.5319L158.378 30.8562C158.457 30.8796 158.527 30.9305 158.576 31.0011C158.626 31.0717 158.652 31.158 158.652 31.2468V32.0855Z" fill="white"/>
</g>
</g>
<defs>
<filter id="filter0_d_210_53" x="0.191956" y="8.59918" width="318.464" height="318.057" filterUnits="userSpaceOnUse" color-interpolation-filters="sRGB">
<feFlood flood-opacity="0" result="BackgroundImageFix"/>
<feColorMatrix in="SourceAlpha" type="matrix" values="0 0 0 0 0 0 0 0 0 0 0 0 0 0 0 0 0 0 127 0" result="hardAlpha"/>
<feOffset dy="4"/>
<feGaussianBlur stdDeviation="2"/>
<feComposite in2="hardAlpha" operator="out"/>
<feColorMatrix type="matrix" values="0 0 0 0 0 0 0 0 0 0 0 0 0 0 0 0 0 0 0.25 0"/>
<feBlend mode="normal" in2="BackgroundImageFix" result="effect1_dropShadow_210_53"/>
<feBlend mode="normal" in="SourceGraphic" in2="effect1_dropShadow_210_53" result="shape"/>
</filter>
<filter id="filter1_d_210_53" x="146.003" y="52.2802" width="27.8435" height="117.765" filterUnits="userSpaceOnUse" color-interpolation-filters="sRGB">
<feFlood flood-opacity="0" result="BackgroundImageFix"/>
<feColorMatrix in="SourceAlpha" type="matrix" values="0 0 0 0 0 0 0 0 0 0 0 0 0 0 0 0 0 0 127 0" result="hardAlpha"/>
<feOffset dy="4"/>
<feGaussianBlur stdDeviation="2"/>
<feComposite in2="hardAlpha" operator="out"/>
<feColorMatrix type="matrix" values="0 0 0 0 0 0 0 0 0 0 0 0 0 0 0 0 0 0 0.25 0"/>
<feBlend mode="normal" in2="BackgroundImageFix" result="effect1_dropShadow_210_53"/>
<feBlend mode="normal" in="SourceGraphic" in2="effect1_dropShadow_210_53" result="shape"/>
</filter>
<filter id="filter2_d_210_53" x="142" y="15" width="34.7929" height="33.9006" filterUnits="userSpaceOnUse" color-interpolation-filters="sRGB">
<feFlood flood-opacity="0" result="BackgroundImageFix"/>
<feColorMatrix in="SourceAlpha" type="matrix" values="0 0 0 0 0 0 0 0 0 0 0 0 0 0 0 0 0 0 127 0" result="hardAlpha"/>
<feOffset dy="4"/>
<feGaussianBlur stdDeviation="2"/>
<feComposite in2="hardAlpha" operator="out"/>
<feColorMatrix type="matrix" values="0 0 0 0 0 0 0 0 0 0 0 0 0 0 0 0 0 0 0.25 0"/>
<feBlend mode="normal" in2="BackgroundImageFix" result="effect1_dropShadow_210_53"/>
<feBlend mode="normal" in="SourceGraphic" in2="effect1_dropShadow_210_53" result="shape"/>
</filter>
<clipPath id="clip0_210_53">
<rect width="318" height="319" fill="white"/>
</clipPath>
</defs>
</svg>
